HIERARCHY
ROOT pelvis
{
  OFFSET 0 100 0
  CHANNELS 6 Xposition Yposition Zposition Zrotation Xrotation Yrotation
  JOINT pelvis_right_femur
  {
    OFFSET -10.78128 -3.44521 -0.5502486
    CHANNELS 3 Zrotation Xrotation Yrotation
    JOINT right_femur_tibia
    {
      OFFSET -0.8047443 -44.0398 -0.1307829
      CHANNELS 3 Zrotation Xrotation Yrotation
      JOINT right_tibia_foot
      {
        OFFSET 3.006224 -47.83518 -5
        CHANNELS 3 Zrotation Xrotation Yrotation
        End Site
        {
          OFFSET 0 -5 15
        }
      }
    }
  }
  JOINT pelvis_left_femur
  {
    OFFSET 10.78128 -3.44521 -0.5502486
    CHANNELS 3 Zrotation Xrotation Yrotation
    JOINT left_femur_tibia
    {
      OFFSET 0.8047443 -44.0398 -0.1307829
      CHANNELS 3 Zrotation Xrotation Yrotation
      JOINT left_tibia_foot
      {
        OFFSET -4.370144 -48.10324 -4.275266
        CHANNELS 3 Zrotation Xrotation Yrotation
        End Site
        {
          OFFSET 0 -5 15
        }
      }
    }
  }
  JOINT pelvis_spine1
  {
    OFFSET 0 6.468898 -3.129235
    CHANNELS 3 Zrotation Xrotation Yrotation
    JOINT spine1
    {
      OFFSET 0 23.15396 4.99043
      CHANNELS 3 Zrotation Xrotation Yrotation
      JOINT spine2
      {
        OFFSET 0 20.79997 -5.064912
        CHANNELS 3 Zrotation Xrotation Yrotation
        JOINT neck
        {
          OFFSET 0 14.38658 9.616178
          CHANNELS 3 Zrotation Xrotation Yrotation
          End Site
          {
            OFFSET 0 20 0
          }
        }
      }
      JOINT right_manubrium
      {
        OFFSET -5.722621 16.35077 3.967754
        CHANNELS 3 Zrotation Xrotation Yrotation
        JOINT right_clavicle
        {
          OFFSET -13.16364 1.694482 -4.693211
          CHANNELS 3 Zrotation Xrotation Yrotation
          JOINT right_humerus
          {
            OFFSET -28.5034 -0.3100689 -2.792744
            CHANNELS 3 Zrotation Xrotation Yrotation
            JOINT right_radius
            {
              OFFSET -25.15693 0.02248979 -1.271978
              CHANNELS 3 Zrotation Xrotation Yrotation
              End Site
              {
                OFFSET -15 0 0
              }
            }
          }
        }
      }
      JOINT left_manubrium
      {
        OFFSET 5.722621 16.35077 3.967754
        CHANNELS 3 Zrotation Xrotation Yrotation
        JOINT left_clavicle
        {
          OFFSET 13.16364 1.694482 -4.693211
          CHANNELS 3 Zrotation Xrotation Yrotation
          JOINT left_humerus
          {
            OFFSET 29.39168 -1.063119 -2.237045
            CHANNELS 3 Zrotation Xrotation Yrotation
            JOINT left_radius
            {
              OFFSET 24.59957 -0.9528479 0.9047498
              CHANNELS 3 Zrotation Xrotation Yrotation
              End Site
              {
                OFFSET 15 -0 -0
              }
            }
          }
        }
      }
    }
  }
}
MOTION
Frames: 8
Frame Time: 0.0416666666667
0 103.5113 0 0.2501592 1.896486 0.4122561 3.135773 -16.71098 7.477583 2.840597e-10 31.22326 3.826772e-10 -4.951045 -14.21321 -2.196134 -6.140241 3.828711 -19.76136 2.565111e-09 -1.214115 -1.27092e-09 4.436634 -18.29461 21.97904 -3.472066 -2.040017 4.708405 2.428802 8.14186 -7.541106 0.9989736 21.2557 7.631698 3.623256 -24.99709 9.14235 6.572558 -20.26928 11.31867 84.18411 38.04719 -16.24046 3.154316e-10 1.64212e-09 18.31479 -10.57974 10.21919 8.040112 5.319327 -18.33018 -1.287532 -95.32518 29.36925 23.96854 -6.86101e-11 8.869711e-10 -17.00785 1.99556 14.03183 12.94251
0.5649238 102.8916 2.73527 0.3399877 1.756735 0.9205439 2.923608 -18.19985 7.529721 3.591682e-10 33.20312 2.77962e-10 -4.477276 -13.45281 -2.593408 -6.353042 5.6248 -20.00674 2.119073e-09 -1.550754 -1.063319e-09 4.338914 -19.00022 21.96923 -3.64244 -1.956341 4.453787 2.40843 8.034385 -7.635055 1.053952 21.41131 7.75038 3.623942 -24.8536 9.3374 6.694568 -19.78182 11.21606 84.95235 38.15155 -16.91837 3.165655e-10 1.458867e-09 17.74358 -10.62204 10.2862 7.955044 5.392119 -18.30564 -1.315634 -95.04653 29.70093 23.00074 -6.383017e-11 7.917952e-10 -17.49599 1.869259 13.87434 13.16577
1.117623 102.3083 5.503392 0.3571657 1.706711 1.482739 2.899079 -19.8902 7.460744 4.191456e-10 33.93977 2.089179e-10 -4.332432 -12.77825 -2.885351 -6.44967 7.429278 -20.15249 1.862577e-09 -1.470371 -9.564891e-10 4.320014 -19.57642 21.83415 -3.715903 -1.92282 4.20282 2.448508 7.99368 -7.788237 1.075093 21.49748 7.829669 3.637461 -24.81058 9.448767 6.730222 -19.36936 11.14915 85.71577 38.14044 -17.76912 3.193341e-10 1.35034e-09 17.0565 -10.53721 10.30138 7.767901 5.500362 -18.47738 -1.401755 -94.61853 29.85668 22.03338 -5.993231e-11 7.354229e-10 -18.15953 1.997627 13.88159 13.03182
1.635346 101.7402 8.286187 0.2977922 1.741205 2.056982 3.07374 -21.74639 7.285938 4.567381e-10 33.37438 1.817093e-10 -4.523943 -12.21521 -3.066064 -6.428723 9.192063 -20.19206 1.80006e-09 -0.8686985 -9.489488e-10 4.36667 -20.00069 21.57499 -3.686495 -1.939055 3.966697 2.551194 8.027996 -8.002022 1.063042 21.52406 7.868449 3.665969 -24.87798 9.476139 6.680437 -19.04535 11.12886 86.51988 38.01474 -18.80761 3.229049e-10 1.316542e-09 16.26768 -10.33664 10.27569 7.484127 5.642807 -18.85715 -1.545833 -94.10574 29.82537 21.1037 -5.621708e-11 7.179868e-10 -19.00694 2.381367 14.05255 12.54698
2.094562 101.1668 11.05808 0.1590805 1.872591 2.60089 3.440273 -23.69357 7.025772 4.693192e-10 31.48056 2.001176e-10 -5.044829 -11.79987 -3.117999 -6.290742 10.83601 -20.12415 1.941704e-09 0.2030777 -1.044892e-09 4.472326 -20.24759 21.18283 -3.553423 -2.005902 3.75239 2.714457 8.122692 -8.264708 1.016693 21.46495 7.860166 3.704442 -25.04208 9.409595 6.548044 -18.80791 11.14484 87.21651 37.7864 -19.9415 3.286376e-10 1.361739e-09 15.40074 -9.997774 10.19756 7.100784 5.807781 -19.41038 -1.733448 -93.44357 29.61775 20.22603 -5.213392e-11 7.417656e-10 -19.99038 2.998117 14.36429 11.73152
2.479165 100.574 13.81151 -0.03016985 2.044765 3.081279 3.931743 -25.52616 6.730796 4.632418e-10 28.67742 2.482022e-10 -5.760637 -11.52385 -3.080071 -6.071927 12.23653 -19.94537 2.21698e-09 1.725441 -1.209401e-09 4.580494 -20.3063 20.69515 -3.343864 -2.097866 3.576363 2.90851 8.260089 -8.539728 0.9522233 21.34825 7.809638 3.742578 -25.24708 9.271347 6.356148 -18.6388 11.1869 87.7784 37.47742 -21.05785 3.334629e-10 1.452899e-09 14.52334 -9.599821 10.09762 6.672453 5.971529 -20.05226 -1.943737 -92.69921 29.27387 19.42765 -4.674538e-11 7.896018e-10 -21.01212 3.748164 14.73003 10.72444
2.780277 99.96157 16.56737 -0.2311379 2.183032 3.477728 4.474936 -27.13038 6.446445 4.485493e-10 25.49575 3.022579e-10 -6.501915 -11.32266 -3.026493 -5.818648 13.38401 -19.65113 2.520162e-09 3.741269 -1.389796e-09 4.617061 -20.20038 20.14285 -3.092338 -2.180401 3.440398 3.101385 8.422071 -8.797086 0.891139 21.22036 7.72821 3.770035 -25.42502 9.09632 6.132718 -18.4857 11.24169 88.26781 37.1047 -22.10916 3.313707e-10 1.54068e-09 13.65773 -9.238098 10.02101 6.249718 6.116061 -20.70482 -2.163122 -91.93538 28.84651 18.66321 -3.948567e-11 8.35891e-10 -22.0199 4.524129 15.05422 9.678613
3.003264 99.3447 19.37896 -0.3908342 2.197607 3.78727 4.966464 -28.32766 6.225083 4.327467e-10 22.67033 3.359729e-10 -7.05057 -11.12275 -3.043969 -5.592994 14.23645 -19.2498 2.715621e-09 6.214281 -1.512315e-09 4.501166 -19.96655 19.5883 -2.848501 -2.211651 3.350139 3.249572 8.585186 -8.994991 0.8601344 21.14416 7.634011 3.776258 -25.49689 8.933554 5.918104 -18.29842 11.29478 88.76611 36.69839 -23.01687 3.141971e-10 1.566217e-09 12.86166 -9.037469 10.02508 5.90681 6.21862 -21.26132 -2.3706 -91.26977 28.41247 17.91109 -3.111362e-11 8.500352e-10 -22.92267 5.172688 15.23007 8.808562
